# xmcd
#
# Track frame offsets:
# 150
# 3812
# 16837
# 30207
# 44231
# 59151
# 84308
# 107355
# 128530
# 146532
# 167356
# 188801
# 205276
# 220152
# 241120
# 254518
# 275571
#
# Disc length: 3818 seconds
#
# Revision: 1
# Processed by: cddbd v1.5.2PL0 Copyright (c) Steve Scherf et al.
# Submitted via: CedeCatalogueitor 2.6.0.6 http://personales.ya.com/cdcatalogueitor
#
DISCID=de0ee811
DTITLE=Various Artist - Hellhound On My Trail: Songs Of Robert Johnson
DYEAR=2001
DGENRE=
TTITLE0=Crossroads (The Crossroad Blues)
TTITLE1=Traveling Riverside Blues
TTITLE2=If I Had Possession Over Judgment Day
TTITLE3=I'm A Steady Rollin' Man
TTITLE4=Me And The Devil Blues
TTITLE5=Walkin' Blues
TTITLE6=When You Got A Good Friend
TTITLE7=Kindhearted Woman Blues
TTITLE8=Dust My Broom
TTITLE9=Come On In My Kitchen
TTITLE10=Stones In My Passway
TTITLE11=Walking Blues
TTITLE12=Hellhound On My Trail
TTITLE13=Stop Breakin' Down Blues
TTITLE14=Sweet Home Chicago
TTITLE15=Milkcow's Calf Blues
TTITLE16=Unknow
EXTD=
EXTT0=
EXTT1=
EXTT2=
EXTT3=
EXTT4=
EXTT5=
EXTT6=
EXTT7=
EXTT8=
EXTT9=
EXTT10=
EXTT11=
EXTT12=
EXTT13=
EXTT14=
EXTT15=
EXTT16=
PLAYORDER=
